:SAMPLES-PER-SECOND 30
:FRAME-RANGE 1-744
:FULLY-SPECIFIED
:DEGREES
280
root  1.26852 39.9925 31.8726 -4.41907 72.5708 -11.6797
RightUpLeg  -9.56453 -12.71 1.05625
RightLeg  18.1594 -4.35925 -1.3784
RightFoot  -7.02146 -0.320576 7.22198
RightToes  -5.28216e-011 1.2921e-014 -6.02303e-014
Spine  -0.88205 4.79304 11.4637
Spine1  5.87707 6.82294 -8.75388
HEad  8.83345 -28.1201 16.4068
LeftShoulder1  1.5383 -4.1764 -13.8657
LeftArm  -5.97174 -23.3824 -48.6593
LeftForeArm  -9.112 -21.0941 -5.57258
LeftHand  0.000251401 1.56283 -0.270183
RightShoulder  3.01761 9.60437 16.8518
RightArm  -13.0405 52.5734 68.4339
RightForeArm  24.7399 -2.01545 1.36505
RightHand  -0.163729 -2.91881 -7.14369
LeftUpLeg  -17.6656 -12.5526 6.16992
LeftLeg  15.6861 -3.72343 -0.375488
LeftFoot  -2.87461 0.0302291 -0.174305
LeftToes  -9.4837e-011 -7.11147e-011 -1.07582e-011
281
root  1.36091 39.9867 32.0768 -4.04968 70.6038 -11.4842
RightUpLeg  -10.3996 -12.5445 1.46141
RightLeg  19.5215 -1.93873 -0.950824
RightFoot  -7.07396 -0.347938 8.03206
RightToes  -5.28216e-011 1.2921e-014 -6.02303e-014
Spine  -0.835427 4.63482 11.0726
Spine1  6.01319 6.54566 -8.17576
HEad  9.74358 -27.1876 16.0371
LeftShoulder1  1.48393 -3.92443 -13.8261
LeftArm  -7.63932 -21.0988 -49.4763
LeftForeArm  -6.28095 -19.6253 -5.74256
LeftHand  -0.0302546 1.54584 0.671623
RightShoulder  3.00776 9.65801 16.6635
RightArm  -12.9146 51.3672 69.3432
RightForeArm  29.2375 -1.51203 1.68138
RightHand  -0.230908 -2.17538 -8.05446
LeftUpLeg  -17.4401 -10.8859 6.67714
LeftLeg  16.1645 -3.26148 -0.406826
LeftFoot  -3.52288 0.0503443 -0.426222
LeftToes  -9.4837e-011 -7.11147e-011 -1.07582e-011
282
root  1.44071 39.9408 32.2962 -2.91708 68.0183 -10.3283
RightUpLeg  -10.9559 -12.1645 1.03878
RightLeg  20.9813 1.49277 0.417533
RightFoot  -8.01334 -0.338339 9.74372
RightToes  -5.28216e-011 1.2921e-014 -6.02303e-014
Spine  -0.76246 4.47132 10.1881
Spine1  6.14805 6.30472 -7.73862
HEad  10.9592 -26.3083 15.6119
LeftShoulder1  1.46226 -3.77115 -13.9779
LeftArm  -7.25281 -18.3891 -49.9487
LeftForeArm  -6.11732 -18.1524 -6.22904
LeftHand  -0.0536508 1.85395 1.45987
RightShoulder  2.94467 9.3301 16.7743
RightArm  -11.9656 49.7604 70.6738
RightForeArm  33.8238 -1.61214 2.38263
RightHand  -0.268 -1.87129 -8.63395
LeftUpLeg  -17.0769 -9.15116 6.92154
LeftLeg  16.9962 -2.54478 -0.345714
LeftFoot  -4.49537 0.0897087 -1.04768
LeftToes  -9.4837e-011 -7.11147e-011 -1.07582e-011
283
root  1.49014 39.8205 32.5253 -0.741882 64.9168 -7.94604
RightUpLeg  -11.3877 -11.527 -0.353654
RightLeg  22.4011 5.27018 2.17126
RightFoot  -10.4847 -0.175306 13.8141
RightToes  -5.28216e-011 1.2921e-014 -6.02303e-014
Spine  -0.733248 4.21619 8.7201
Spine1  6.38318 6.1127 -8.00727
HEad  12.382 -25.2702 15.1119
LeftShoulder1  1.41946 -3.48553 -14.2396
LeftArm  -3.36564 -15.514 -49.9938
LeftForeArm  -7.67112 -17.3714 -6.9098
LeftHand  -0.0683507 2.83714 2.48843
RightShoulder  2.89953 9.02027 17.0124
RightArm  -10.3901 47.4197 72.0421
RightForeArm  35.6044 -2.30815 3.53641
RightHand  -0.249956 -2.02295 -8.37436
LeftUpLeg  -16.7828 -7.48125 6.54709
LeftLeg  18.3179 -1.30366 0.0173537
LeftFoot  -5.72335 0.116812 -1.67971
LeftToes  -9.4837e-011 -7.11147e-011 -1.07582e-011
284
root  1.55033 39.7549 32.7872 0.477127 60.8292 -6.63437
RightUpLeg  -12.0237 -10.8132 -1.39309
RightLeg  23.3749 6.15647 2.69707
RightFoot  -12.8088 0.0856135 13.448
RightToes  -5.28216e-011 1.2921e-014 -6.02303e-014
Spine  -1.49176 4.38809 7.78336
Spine1  7.33222 6.29034 -7.9821
HEad  13.628 -24.5703 14.3564
LeftShoulder1  1.42097 -3.38733 -14.6009
LeftArm  -1.59459 -12.9952 -50.1256
LeftForeArm  -4.48887 -15.7888 -7.75457
LeftHand  -0.0294341 2.06683 0.650026
RightShoulder  2.87371 8.60711 17.6627
RightArm  -9.23757 44.7637 72.9249
RightForeArm  37.852 -4.04684 4.50529
RightHand  -0.226115 -2.48081 -8.66563
LeftUpLeg  -15.8483 -4.97002 6.46223
LeftLeg  18.7841 -0.0104346 0.608785
LeftFoot  -6.86735 0.137534 -2.46522
LeftToes  -9.4837e-011 -7.11147e-011 -1.07582e-011
285
root  1.60826 39.7408 33.0304 1.04594 57.2993 -5.92966
RightUpLeg  -12.3937 -11.1078 -2.53327
RightLeg  23.2106 4.25204 1.78437
RightFoot  -13.6044 0.162585 12.8759
RightToes  -5.28216e-011 1.2921e-014 -6.02303e-014
Spine  -1.79919 4.10154 7.06893
Spine1  7.42623 5.89102 -7.67241
HEad  14.9167 -24.0878 13.4426
LeftShoulder1  1.40233 -3.0943 -15.3461
LeftArm  -2.04173 -10.5334 -50.5842
LeftForeArm  -0.161035 -13.7028 -8.6835
LeftHand  -0.0294683 2.45408 0.655004
RightShoulder  2.90623 8.38712 18.4564
RightArm  -9.71691 41.4143 73.1658
RightForeArm  41.7143 -6.38082 4.7236
RightHand  -0.207266 -3.07052 -9.82853
LeftUpLeg  -14.5838 -3.14619 6.43372
LeftLeg  18.5545 1.4566 1.37494
LeftFoot  -7.58529 0.146052 -3.06586
LeftToes  -9.4837e-011 -7.11147e-011 -1.07582e-011
286
root  1.66337 39.782 33.3051 1.62166 53.6464 -5.29581
RightUpLeg  -12.7182 -12.0042 -3.92641
RightLeg  21.9709 1.64261 0.51764
RightFoot  -13.2746 0.10122 11.323
RightToes  -5.28216e-011 1.2921e-014 -6.02303e-014
Spine  -2.35977 3.91894 6.53473
Spine1  7.63981 5.61668 -7.4
HEad  15.8301 -24.0868 12.6213
LeftShoulder1  1.39231 -2.933 -15.7894
LeftArm  -3.87174 -8.28112 -52.0092
LeftForeArm  2.46681 -11.3715 -9.4754
LeftHand  -0.0296767 2.94861 1.22584
RightShoulder  2.89944 7.85387 19.6714
RightArm  -11.2993 37.703 72.296
RightForeArm  45.7197 -6.32406 4.94015
RightHand  -0.162825 -3.77064 -10.7289
LeftUpLeg  -12.8698 -0.655284 6.32515
LeftLeg  17.3587 2.3688 2.0435
LeftFoot  -7.9046 0.160505 -3.76924
LeftToes  -9.4837e-011 -7.11147e-011 -1.07582e-011
287
root  1.70121 39.8109 33.6056 2.30432 49.95 -4.6909
RightUpLeg  -13.2622 -12.9053 -5.46418
RightLeg  20.0021 -1.14907 -0.672482
RightFoot  -12.6842 0.028158 9.74621
RightToes  -5.28216e-011 1.2921e-014 -6.02303e-014
Spine  -2.76398 3.65183 6.12735
Spine1  7.46711 5.26439 -7.21478
HEad  16.9965 -24.1843 11.5454
LeftShoulder1  1.33748 -2.59872 -16.1537
LeftArm  -5.50989 -6.3724 -53.7186
LeftForeArm  4.56413 -9.16288 -10.0196
LeftHand  -0.0301945 3.48034 1.78193
RightShoulder  2.92836 7.3893 21.1719
RightArm  -14.4919 33.8388 70.2935
RightForeArm  49.7668 -6.10201 4.23439
RightHand  -0.0783002 -4.77218 -11.6726
LeftUpLeg  -11.2787 2.03644 6.29408
LeftLeg  16.106 3.21072 2.47255
LeftFoot  -8.15896 0.170325 -4.36952
LeftToes  -9.4837e-011 -7.11147e-011 -1.07582e-011
288
root  1.71545 39.8217 33.9615 3.0184 46.4966 -4.06471
RightUpLeg  -13.6941 -14.0099 -7.17166
RightLeg  17.1883 -2.93028 -1.22232
RightFoot  -11.7957 -0.0450861 8.85337
RightToes  -5.28216e-011 1.2921e-014 -6.02303e-014
Spine  -3.30966 3.24839 5.60035
Spine1  7.31066 4.69903 -6.7295
HEad  17.8913 -24.204 10.3355
LeftShoulder1  1.30821 -2.3193 -16.8116
LeftArm  -5.37076 -4.93459 -55.1027
LeftForeArm  6.12154 -7.26242 -10.6221
LeftHand  -0.029832 3.5353 1.87228
RightShoulder  2.92649 6.91607 22.5021
RightArm  -19.0493 29.5593 67.6569
RightForeArm  52.792 -5.7441 2.60615
RightHand  0.00666207 -5.61706 -12.6563
LeftUpLeg  -9.72929 3.98733 6.34048
LeftLeg  14.8813 4.52019 2.8396
LeftFoot  -8.31881 0.185008 -5.12094
LeftToes  -9.4837e-011 -7.11147e-011 -1.07582e-011
289
root  1.68913 39.8298 34.388 3.66127 43.1662 -3.36327
RightUpLeg  -13.9251 -13.5239 -9.21431
RightLeg  13.9422 -5.29822 -1.45279
RightFoot  -10.2295 -0.145717 7.83344
RightToes  -5.28216e-011 1.2921e-014 -6.02303e-014
Spine  -3.83122 2.78858 4.8924
Spine1  7.35051 4.05684 -6.03759
HEad  18.4041 -23.6883 9.32122
LeftShoulder1  1.2893 -2.14032 -17.2641
LeftArm  -4.66228 -4.07393 -56.5657
LeftForeArm  8.88802 -5.4144 -11.23
LeftHand  -0.0344191 4.12967 2.11551
RightShoulder  2.80979 6.14866 23.6507
RightArm  -24.3491 25.1512 64.8056
RightForeArm  53.4799 -5.33108 0.291057
RightHand  0.124106 -6.60922 -13.6998
LeftUpLeg  -7.92764 5.3908 6.40127
LeftLeg  13.4294 6.32887 3.13347
LeftFoot  -8.30505 0.211258 -6.09061
LeftToes  -9.4837e-011 -7.11147e-011 -1.07582e-011
